<?xml version="1.0" encoding="UTF-8"?>
<svg height="16px" viewBox="0 0 16 16" width="16px" xmlns="http://www.w3.org/2000/svg">
    <path d="m 2.667969 2.117188 c 0.8125 -0.71875 1.773437 -1.273438 2.832031 -1.617188 c 0.585938 0.722656 1.488281 1.1875 2.5 1.1875 s 1.914062 -0.464844 2.5 -1.1875 c 1.058594 0.34375 2.019531 0.898438 2.832031 1.617188 c -0.339843 0.859374 -0.296875 1.863281 0.210938 2.726562 c 0.503906 0.863281 1.363281 1.402344 2.289062 1.542969 c 0.109375 0.519531 0.167969 1.0625 0.167969 1.613281 c 0 0.554688 -0.058594 1.09375 -0.167969 1.613281 c -0.925781 0.140625 -1.785156 0.679688 -2.289062 1.542969 c -0.507813 0.863281 -0.550781 1.867188 -0.210938 2.726562 c -0.8125 0.71875 -1.773437 1.273438 -2.832031 1.617188 c -0.585938 -0.722656 -1.488281 -1.183594 -2.5 -1.183594 s -1.914062 0.460938 -2.5 1.183594 c -1.058594 -0.34375 -2.019531 -0.898438 -2.832031 -1.617188 c 0.339843 -0.859374 0.292969 -1.863281 -0.210938 -2.726562 c -0.503906 -0.863281 -1.363281 -1.402344 -2.289062 -1.542969 c -0.1093752 -0.519531 -0.167969 -1.058593 -0.167969 -1.613281 c 0 -0.550781 0.0585938 -1.09375 0.167969 -1.613281 c 0.925781 -0.140625 1.785156 -0.679688 2.289062 -1.542969 c 0.503907 -0.863281 0.550781 -1.867188 0.210938 -2.726562 z m 0 0"/>
</svg>
