<?xml version="1.0" encoding="UTF-8"?>
<svg height="128px" viewBox="0 0 128 128" width="128px" xmlns="http://www.w3.org/2000/svg">
    <path d="m 24.152344 19.933594 c 6.074218 -5.375 13.261718 -9.539063 21.179687 -12.121094 c 4.386719 5.421875 11.128907 8.898438 18.695313 8.898438 c 7.5625 0 14.300781 -3.476563 18.683594 -8.898438 c 7.921874 2.582031 15.113281 6.746094 21.191406 12.121094 c -2.550782 6.464844 -2.214844 13.972656 1.5625 20.449218 c 3.78125 6.472657 10.191406 10.515626 17.125 11.566407 c 0.820312 3.910156 1.253906 7.960937 1.253906 12.105469 c 0 4.152343 -0.433594 8.199218 -1.253906 12.105468 c -6.933594 1.046875 -13.34375 5.089844 -17.125 11.566406 c -3.777344 6.476563 -4.113282 13.980469 -1.5625 20.441407 c -6.078125 5.382812 -13.269532 9.546875 -21.191406 12.125 c -4.382813 -5.417969 -11.121094 -8.890625 -18.683594 -8.890625 c -7.566406 0 -14.308594 3.472656 -18.695313 8.890625 c -7.917969 -2.578125 -15.105469 -6.742188 -21.179687 -12.125 c 2.542968 -6.460938 2.207031 -13.964844 -1.574219 -20.441407 c -3.777344 -6.476562 -10.183594 -10.519531 -17.117187 -11.566406 c -0.820313 -3.90625 -1.253907 -7.953125 -1.253907 -12.105468 c 0 -4.144532 0.433594 -8.195313 1.253907 -12.105469 c 6.933593 -1.050781 13.339843 -5.09375 17.117187 -11.566407 c 3.78125 -6.476562 4.117187 -13.984374 1.574219 -20.449218 z m 0 0" fill="#3d3846"/>
    <path d="m 1.215947 14.821476 c 0 6.596061 -4.94142 11.941949 -11.036017 11.941949 s -11.036017 -5.345888 -11.036017 -11.941949 c 0 -6.594895 4.94142 -11.941949 11.036017 -11.941949 s 11.036017 5.347054 11.036017 11.941949 z m 0 0" fill="#3d3846" stroke="#ffffff" transform="matrix(3.624496 0 0 3.349537 99.620148 14.405701)"/>
    <path d="m 74.472656 73.453125 v -9.402344 l 13.054688 11.753907 l -13.054688 11.746093 v -9.398437 h -31.332031 v -4.699219 z m -20.890625 -32.902344 v 9.398438 l 31.335938 0.003906 v 4.699219 h -31.335938 v 9.398437 l -13.054687 -11.75 z m 0 0" fill="#ffffff"/>
</svg>
